<svg width="59" height="32" fill="none" xmlns="http://www.w3.org/2000/svg"><path d="M28.04.97c-1.064 2.688-1.89 5.544-2.478 8.568h-.84c.168-.812.252-1.596.252-2.352 0-1.68-.518-3.01-1.554-3.99-1.036-1.008-2.52-1.512-4.452-1.512-1.512 0-2.744.378-3.696 1.134-.924.756-1.386 1.904-1.386 3.444 0 1.288.378 2.506 1.134 3.654.784 1.12 1.96 2.52 3.528 4.2 1.176 1.232 2.1 2.268 2.772 3.108a13.96 13.96 0 011.722 2.772 7.385 7.385 0 01.714 3.192c0 1.876-.602 3.444-1.806 4.704-1.204 1.26-2.702 2.198-4.494 2.814a16.648 16.648 0 01-5.292.882c-1.792 0-3.178-.154-4.158-.462-.98-.308-2.016-.798-3.108-1.47-.616-.42-1.106-.63-1.47-.63-.364 0-.658.154-.882.462-.196.28-.49.882-.882 1.806h-.84c.448-1.064.882-2.338 1.302-3.822.448-1.512.966-3.598 1.554-6.258h.84c-.252 1.064-.378 2.058-.378 2.982 0 2.1.574 3.71 1.722 4.83 1.176 1.092 2.884 1.638 5.124 1.638 3.612 0 5.418-1.47 5.418-4.41 0-1.568-.378-2.968-1.134-4.2-.728-1.26-1.834-2.702-3.318-4.326a65.224 65.224 0 01-2.394-2.856 12.774 12.774 0 01-1.512-2.646 8.402 8.402 0 01-.588-3.15c0-1.792.504-3.318 1.512-4.578 1.036-1.288 2.352-2.24 3.948-2.856a12.916 12.916 0 014.872-.966c1.456 0 2.702.168 3.738.504 1.036.336 2.002.784 2.898 1.344.728.448 1.19.672 1.386.672.224 0 .434-.168.63-.504.224-.364.476-.938.756-1.722h.84zM54.874.676c1.204 0 2.156.35 2.856 1.05.7.672 1.05 1.526 1.05 2.562 0 1.064-.364 1.96-1.092 2.688-.7.728-1.61 1.092-2.73 1.092-.924 0-1.638-.224-2.142-.672-.504-.476-.756-1.106-.756-1.89.028-.924.336-1.722.924-2.394.588-.7 1.344-1.19 2.268-1.47-.14-.112-.378-.168-.714-.168-.84 0-1.68.322-2.52.966-1.26.896-2.688 2.632-4.284 5.208-1.596 2.548-3.038 5.698-4.326 9.45l-2.394 9.45c-.168.672-.252 1.232-.252 1.68 0 .728.238 1.218.714 1.47s1.316.406 2.52.462l-.21.84c-1.596-.084-4.004-.126-7.224-.126-3.024 0-5.278.042-6.762.126l.21-.84c1.008-.056 1.764-.168 2.268-.336.504-.168.91-.49 1.218-.966.308-.504.588-1.274.84-2.31l2.268-9.03c-.448-3.836-1.064-7.084-1.848-9.744s-1.778-3.99-2.982-3.99c-.476 0-.868.168-1.176.504-.28.336-.532.826-.756 1.47l-.882 2.646h-.924l1.05-3.234c.532-1.596 1.288-2.744 2.268-3.444 1.008-.7 2.226-1.05 3.654-1.05 1.82 0 3.248.574 4.284 1.722 1.064 1.12 1.848 2.73 2.352 4.83.532 2.072.994 4.886 1.386 8.442.924-2.632 1.974-4.998 3.15-7.098 1.176-2.1 2.422-3.864 3.738-5.292C51.514 1.544 53.166.676 54.874.676z" fill="#262626"/></svg>