<svg width="59" height="32" viewBox="0 0 59 32" fill="none" xmlns="http://www.w3.org/2000/svg">
<path d="M28.04 0.969999C26.976 3.658 26.15 6.514 25.562 9.538H24.722C24.89 8.726 24.974 7.942 24.974 7.186C24.974 5.506 24.456 4.176 23.42 3.196C22.384 2.188 20.9 1.684 18.968 1.684C17.456 1.684 16.224 2.062 15.272 2.818C14.348 3.574 13.886 4.722 13.886 6.262C13.886 7.55 14.264 8.768 15.02 9.916C15.804 11.036 16.98 12.436 18.548 14.116C19.724 15.348 20.648 16.384 21.32 17.224C21.992 18.064 22.566 18.988 23.042 19.996C23.518 21.004 23.756 22.068 23.756 23.188C23.756 25.064 23.154 26.632 21.95 27.892C20.746 29.152 19.248 30.09 17.456 30.706C15.692 31.294 13.928 31.588 12.164 31.588C10.372 31.588 8.986 31.434 8.006 31.126C7.026 30.818 5.99 30.328 4.898 29.656C4.282 29.236 3.792 29.026 3.428 29.026C3.064 29.026 2.77 29.18 2.546 29.488C2.35 29.768 2.056 30.37 1.664 31.294H0.824C1.272 30.23 1.706 28.956 2.126 27.472C2.574 25.96 3.092 23.874 3.68 21.214H4.52C4.268 22.278 4.142 23.272 4.142 24.196C4.142 26.296 4.716 27.906 5.864 29.026C7.04 30.118 8.748 30.664 10.988 30.664C14.6 30.664 16.406 29.194 16.406 26.254C16.406 24.686 16.028 23.286 15.272 22.054C14.544 20.794 13.438 19.352 11.954 17.728C10.946 16.58 10.148 15.628 9.56 14.872C8.972 14.088 8.468 13.206 8.048 12.226C7.656 11.246 7.46 10.196 7.46 9.076C7.46 7.284 7.964 5.758 8.972 4.498C10.008 3.21 11.324 2.258 12.92 1.642C14.516 0.997997 16.14 0.675997 17.792 0.675997C19.248 0.675997 20.494 0.843998 21.53 1.18C22.566 1.516 23.532 1.964 24.428 2.524C25.156 2.972 25.618 3.196 25.814 3.196C26.038 3.196 26.248 3.028 26.444 2.692C26.668 2.328 26.92 1.754 27.2 0.969999H28.04ZM54.8744 0.675997C56.0784 0.675997 57.0304 1.026 57.7304 1.726C58.4304 2.398 58.7804 3.252 58.7804 4.288C58.7804 5.352 58.4164 6.248 57.6884 6.976C56.9884 7.704 56.0784 8.068 54.9584 8.068C54.0344 8.068 53.3204 7.844 52.8164 7.396C52.3124 6.92 52.0604 6.29 52.0604 5.506C52.0884 4.582 52.3964 3.784 52.9844 3.112C53.5724 2.412 54.3284 1.922 55.2524 1.642C55.1124 1.53 54.8744 1.474 54.5384 1.474C53.6984 1.474 52.8584 1.796 52.0184 2.44C50.7584 3.336 49.3304 5.072 47.7344 7.648C46.1384 10.196 44.6964 13.346 43.4084 17.098L41.0144 26.548C40.8464 27.22 40.7624 27.78 40.7624 28.228C40.7624 28.956 41.0004 29.446 41.4764 29.698C41.9524 29.95 42.7924 30.104 43.9964 30.16L43.7864 31C42.1904 30.916 39.7824 30.874 36.5624 30.874C33.5384 30.874 31.2844 30.916 29.8004 31L30.0104 30.16C31.0184 30.104 31.7744 29.992 32.2784 29.824C32.7824 29.656 33.1884 29.334 33.4964 28.858C33.8044 28.354 34.0844 27.584 34.3364 26.548L36.6044 17.518C36.1564 13.682 35.5404 10.434 34.7564 7.774C33.9724 5.114 32.9784 3.784 31.7744 3.784C31.2984 3.784 30.9064 3.952 30.5984 4.288C30.3184 4.624 30.0664 5.114 29.8424 5.758L28.9604 8.404H28.0364L29.0864 5.17C29.6184 3.574 30.3744 2.426 31.3544 1.726C32.3624 1.026 33.5804 0.675997 35.0084 0.675997C36.8284 0.675997 38.2564 1.25 39.2924 2.398C40.3564 3.518 41.1404 5.128 41.6444 7.228C42.1764 9.3 42.6384 12.114 43.0304 15.67C43.9544 13.038 45.0044 10.672 46.1804 8.572C47.3564 6.472 48.6024 4.708 49.9184 3.28C51.5144 1.544 53.1664 0.675997 54.8744 0.675997Z" fill="#262626"/>
</svg>
